<svg width="73" height="93" viewBox="0 0 73 93" fill="none" xmlns="http://www.w3.org/2000/svg">
<path d="M54.5 3H57V0.5H54.5V3ZM52.7322 91.7678C53.7085 92.7441 55.2915 92.7441 56.2678 91.7678L72.1777 75.8579C73.154 74.8816 73.154 73.2986 72.1777 72.3223C71.2014 71.346 69.6184 71.346 68.6421 72.3223L54.5 86.4645L40.3579 72.3223C39.3816 71.346 37.7986 71.346 36.8223 72.3223C35.846 73.2986 35.846 74.8816 36.8223 75.8579L52.7322 91.7678ZM0 5.5H54.5V0.5H0V5.5ZM52 3V90H57V3H52Z" fill="#0E0E0E"/>
</svg>
