<svg width="66" height="91" viewBox="0 0 66 91" fill="none" xmlns="http://www.w3.org/2000/svg">
<path d="M54.5 2H56V0.5H54.5V2ZM53.4393 90.0607C54.0251 90.6464 54.9749 90.6464 55.5607 90.0607L65.1066 80.5147C65.6924 79.9289 65.6924 78.9792 65.1066 78.3934C64.5208 77.8076 63.5711 77.8076 62.9853 78.3934L54.5 86.8787L46.0147 78.3934C45.4289 77.8076 44.4792 77.8076 43.8934 78.3934C43.3076 78.9792 43.3076 79.9289 43.8934 80.5147L53.4393 90.0607ZM0 3.5H54.5V0.5H0V3.5ZM53 2V89H56V2H53Z" fill="#F4F4F4"/>
</svg>
